<svg width="247" height="56" viewBox="0 0 247 56" fill="none" xmlns="http://www.w3.org/2000/svg">
<g clip-path="url(#clip0_195_260)">
<path fill-rule="evenodd" clip-rule="evenodd" d="M21.4004 39.2C19.5439 39.2 17.7634 38.4625 16.4506 37.1497C15.1379 35.837 14.4004 34.0565 14.4004 32.2V0H0.400391V32.2C0.400391 43.7976 9.80279 53.2 21.4004 53.2H36.8004V39.2H21.4004ZM63.4004 14C61.7457 14 60.1073 14.3259 58.5786 14.9591C57.0499 15.5923 55.6609 16.5204 54.4908 17.6905C53.3208 18.8605 52.3927 20.2495 51.7595 21.7782C51.1263 23.3069 50.8004 24.9453 50.8004 26.6C50.8004 28.2547 51.1263 29.8931 51.7595 31.4218C52.3927 32.9505 53.3208 34.3395 54.4908 35.5095C55.6609 36.6796 57.0499 37.6077 58.5786 38.2409C60.1073 38.8741 61.7457 39.2 63.4004 39.2C66.7421 39.2 69.947 37.8725 72.3099 35.5095C74.6729 33.1466 76.0004 29.9417 76.0004 26.6C76.0004 23.2583 74.6729 20.0534 72.3099 17.6905C69.947 15.3275 66.7421 14 63.4004 14ZM36.8004 26.6C36.8004 11.9098 48.7102 0 63.4004 0C78.0906 0 90.0004 11.9098 90.0004 26.6C90.0004 41.2902 78.0906 53.2 63.4004 53.2C48.7102 53.2 36.8004 41.2902 36.8004 26.6ZM214.6 14C211.259 14 208.054 15.3275 205.691 17.6905C203.328 20.0534 202 23.2583 202 26.6C202 29.9417 203.328 33.1466 205.691 35.5095C208.054 37.8725 211.259 39.2 214.6 39.2C217.942 39.2 221.147 37.8725 223.51 35.5095C225.873 33.1466 227.2 29.9417 227.2 26.6C227.2 23.2583 225.873 20.0534 223.51 17.6905C221.147 15.3275 217.942 14 214.6 14ZM188 26.6C188 11.9098 199.91 0 214.6 0C229.291 0 241.2 11.9098 241.2 26.6C241.2 41.2902 229.291 53.2 214.6 53.2C199.91 53.2 188 41.2902 188 26.6ZM119.4 0C104.71 0 92.8004 11.9098 92.8004 26.6C92.8004 41.2902 104.71 53.2 119.4 53.2H158.6C161.357 53.2 164.016 52.78 166.516 52.0016L174 56L182.076 40.8744C184.127 37.0239 185.2 32.7282 185.2 28.3654V26.6C185.2 11.9098 173.291 0 158.6 0H119.4ZM171.2 26.6C171.2 23.2583 169.873 20.0534 167.51 17.6905C165.147 15.3275 161.942 14 158.6 14H119.4C117.746 14 116.107 14.3259 114.579 14.9591C113.05 15.5923 111.661 16.5204 110.491 17.6905C109.321 18.8605 108.393 20.2495 107.76 21.7782C107.126 23.3069 106.8 24.9453 106.8 26.6C106.8 28.2547 107.126 29.8931 107.76 31.4218C108.393 32.9505 109.321 34.3395 110.491 35.5095C111.661 36.6796 113.05 37.6077 114.579 38.2409C116.107 38.8741 117.746 39.2 119.4 39.2H158.6C161.925 39.2001 165.115 37.8861 167.475 35.5443C169.836 33.2025 171.175 30.0227 171.2 26.698V26.6Z" fill="#283841"/>
<path d="M246.801 3.5C246.801 4.42826 246.432 5.3185 245.776 5.97487C245.119 6.63125 244.229 7 243.301 7C242.373 7 241.482 6.63125 240.826 5.97487C240.17 5.3185 239.801 4.42826 239.801 3.5C239.801 2.57174 240.17 1.6815 240.826 1.02513C241.482 0.368749 242.373 0 243.301 0C244.229 0 245.119 0.368749 245.776 1.02513C246.432 1.6815 246.801 2.57174 246.801 3.5Z" fill="#283841"/>
</g>
<defs>
<clipPath id="clip0_195_260">
<rect width="246.4" height="56" fill="white" transform="translate(0.400391)"/>
</clipPath>
</defs>
</svg>
