<svg width="141" height="56" viewBox="0 0 141 56" fill="none" xmlns="http://www.w3.org/2000/svg">
<g clip-path="url(#clip0_195_258)">
<path d="M7.0785 5.929C7.4425 4.2014 9.1645 2.8 10.9187 2.8H20.4555L12.5245 40.3522H2.9877C1.2321 40.3522 0.103703 38.9522 0.469103 37.2232L7.0785 5.929ZM38.8683 5.929C39.2337 4.2014 40.9543 2.8 42.7085 2.8H52.2453L44.3143 40.3522H34.7775C33.0219 40.3522 31.8935 38.9522 32.2589 37.2232L38.8683 5.929ZM102.449 5.929C102.813 4.2014 104.533 2.8 106.289 2.8H115.826L107.895 40.3522H98.3571C96.6015 40.3522 95.4745 38.9522 95.8399 37.2232L102.449 5.929ZM55.4247 2.8H64.9615C66.7171 2.8 67.8455 4.2 67.4801 5.929L60.8707 37.2232C60.5067 38.9522 58.7861 40.3522 57.0305 40.3522H47.4937L55.4247 2.8ZM119.006 2.8H128.542C130.298 2.8 131.426 4.2 131.061 5.929L124.45 37.2232C124.086 38.9522 122.367 40.3522 120.611 40.3522H111.073L119.006 2.8ZM70.6595 5.929C71.0235 4.2014 72.7427 2.8 74.4983 2.8H84.0365L76.1041 40.3522H66.5673C64.8117 40.3522 63.6833 38.9522 64.0501 37.2232L70.6581 5.929H70.6595ZM87.2145 2.8H96.7527C98.5083 2.8 99.6353 4.2 99.2699 5.929L89.3565 52.871C88.9897 54.5986 87.2705 56 85.5149 56H75.9767L87.2145 2.8ZM18.3471 27.8348H31.0633L29.0809 37.2232C28.7155 38.9522 26.9949 40.3522 25.2407 40.3522H15.7025L18.3457 27.8362L18.3471 27.8348ZM62.7285 43.4826H75.4433L72.8001 56H63.2633C61.5063 56 60.3793 54.6 60.7447 52.871L62.7285 43.4826ZM97.2441 46.3932L95.6341 54.0176C95.5641 54.3452 95.4549 54.4348 95.1217 54.4348H94.3895C94.0563 54.4348 93.9835 54.3452 94.0535 54.0176L95.6635 46.3932C95.7335 46.067 95.8427 45.976 96.1759 45.976H96.9081C97.2413 45.976 97.3141 46.067 97.2441 46.3932ZM99.3609 51.5368H99.2111C99.0515 51.5368 98.9955 51.5816 98.9633 51.7398L98.4817 54.0176C98.4117 54.3452 98.3011 54.4348 97.9693 54.4348H97.2357C96.9039 54.4348 96.8311 54.3452 96.8997 54.0176L98.5097 46.3932C98.5797 46.067 98.6917 45.976 99.0235 45.976H100.535C102.277 45.976 102.937 46.5962 102.615 48.118L102.346 49.3934C102.024 50.9166 101.102 51.5368 99.3609 51.5368ZM99.8033 47.7582L99.3833 49.7546C99.3483 49.9128 99.3847 49.9576 99.5457 49.9576H99.7865C100.346 49.9576 100.647 49.7322 100.769 49.1568L100.937 48.356C101.059 47.782 100.855 47.5552 100.293 47.5552H100.052C99.8929 47.5552 99.8369 47.6 99.8033 47.7582ZM105.036 48.9874L106.226 50.2964C106.851 50.9726 106.938 51.3786 106.778 52.1346L106.736 52.3376C106.435 53.7586 105.718 54.5482 104.056 54.5482C102.396 54.5482 101.986 53.8832 102.369 52.066L102.417 51.842C102.487 51.5144 102.598 51.4234 102.929 51.4234H103.708C104.041 51.4234 104.114 51.5144 104.044 51.8406L103.939 52.3376C103.844 52.7884 103.989 52.969 104.39 52.969C104.791 52.969 105.01 52.801 105.097 52.395L105.142 52.1794C105.209 51.863 105.172 51.7062 104.828 51.3338L103.708 50.127C103.081 49.462 103.001 49.077 103.16 48.321L103.212 48.0746C103.513 46.6536 104.23 45.8626 105.89 45.8626C107.552 45.8626 107.962 46.529 107.579 48.3448L107.531 48.5702C107.461 48.8978 107.351 48.9874 107.019 48.9874H106.239C105.907 48.9874 105.834 48.8978 105.903 48.5702L106.008 48.0746C106.103 47.6224 105.959 47.4432 105.557 47.4432C105.157 47.4432 104.937 47.6112 104.852 48.0172L104.811 48.209C104.741 48.5366 104.777 48.6948 105.036 48.9874ZM111.745 46.3932C111.815 46.067 111.924 45.976 112.258 45.976H112.99C113.323 45.976 113.396 46.067 113.326 46.3932L112.127 52.0674C111.744 53.8832 111.054 54.5482 109.392 54.5482C107.731 54.5482 107.321 53.8832 107.705 52.066L108.903 46.3932C108.973 46.067 109.084 45.976 109.416 45.976H110.149C110.481 45.976 110.554 46.067 110.485 46.3932L109.229 52.3376C109.134 52.7884 109.291 52.969 109.726 52.969C110.149 52.969 110.394 52.7884 110.49 52.3376L111.745 46.3932ZM116.514 50.9838C116.518 51.0748 116.547 51.0958 116.605 51.0958C116.661 51.0958 116.701 51.0748 116.743 50.9838L118.723 46.27C118.819 46.032 118.934 45.976 119.221 45.976H120.333C120.665 45.976 120.737 46.067 120.669 46.3932L119.059 54.0176C118.989 54.3452 118.877 54.4348 118.545 54.4348H118.019C117.687 54.4348 117.613 54.3452 117.683 54.0176L118.455 50.3636C118.476 50.2628 118.458 50.239 118.39 50.239C118.343 50.239 118.292 50.2628 118.264 50.3412L116.665 54.0638C116.55 54.334 116.403 54.4348 116.071 54.4348H115.76C115.416 54.4348 115.312 54.334 115.312 54.0638L115.273 50.3398C115.266 50.2614 115.248 50.239 115.191 50.239C115.122 50.239 115.094 50.2628 115.073 50.3636L114.302 54.0176C114.232 54.3452 114.122 54.4348 113.789 54.4348H113.263C112.93 54.4348 112.857 54.3452 112.927 54.0176L114.537 46.3932C114.607 46.067 114.717 45.976 115.049 45.976H116.001C116.402 45.976 116.53 46.067 116.528 46.4618L116.512 50.9838H116.514ZM140.4 2.8C140.4 4.347 139.154 5.6 137.619 5.6C137.252 5.5989 136.889 5.52559 136.551 5.38426C136.213 5.24294 135.906 5.03636 135.648 4.77634C135.389 4.51632 135.185 4.20794 135.046 3.86883C134.907 3.52973 134.836 3.16653 134.837 2.8C134.837 1.253 136.083 0 137.619 0C139.154 0 140.4 1.253 140.4 2.8Z" fill="#1D2633"/>
</g>
<defs>
<clipPath id="clip0_195_258">
<rect width="140" height="56" fill="white" transform="translate(0.400391)"/>
</clipPath>
</defs>
</svg>
