<svg width="116" height="56" viewBox="0 0 116 56" fill="none" xmlns="http://www.w3.org/2000/svg">
<g clip-path="url(#clip0_195_247)">
<path d="M103.511 27.594C103.511 31.6596 100.373 35.028 96.1327 35.028C91.8907 35.028 88.8135 31.6596 88.8135 27.594C88.8135 23.527 91.8921 20.1572 96.1327 20.1572C100.373 20.1572 103.511 23.5284 103.511 27.594Z" fill="#FFD43D"/>
<path d="M69.0698 27.3616C69.0698 31.486 65.8176 34.5646 61.6918 34.5646C57.6262 34.5646 54.374 31.4846 54.374 27.3616C54.374 23.2358 57.6262 20.216 61.6932 20.216C65.8176 20.216 69.0698 23.2372 69.0698 27.3616Z" fill="#FF0C81"/>
<path d="M28.9032 35.028C33.1438 35.028 36.2812 31.6596 36.2812 27.594C36.2812 23.527 33.1438 20.1572 28.9032 20.1572C24.6612 20.1572 21.584 23.527 21.584 27.5926C21.584 31.6596 24.6626 35.028 28.9032 35.028Z" fill="#11EEFC"/>
<path d="M96.1328 42.756C87.303 42.756 80.5648 35.9002 80.5648 27.5352C80.5648 19.2276 87.3618 12.3732 96.1328 12.3732C105.021 12.3732 111.76 19.2864 111.76 27.5352C111.76 35.9002 104.963 42.7546 96.1328 42.7546V42.756ZM96.1328 35.028C100.375 35.028 103.511 31.6596 103.511 27.594C103.511 23.527 100.375 20.1572 96.1328 20.1572C91.8922 20.1572 88.8136 23.527 88.8136 27.5926C88.8136 31.6596 91.8922 35.028 96.1328 35.028ZM61.1118 56C54.3736 56 49.2034 53.0376 46.5896 47.6924L53.444 43.9754C54.7222 46.473 57.1036 48.4484 60.9956 48.4484C65.876 48.4484 69.1856 45.0212 69.1856 39.3862V38.8626C67.6176 40.838 64.8302 42.3486 60.7632 42.3486C52.688 42.3486 46.241 36.0752 46.241 27.5352C46.241 19.2276 52.9792 12.432 61.809 12.432C70.8124 12.432 77.4358 18.879 77.4358 27.5352V39.1538C77.4358 49.378 70.4638 56 61.1118 56ZM61.6928 34.5646C65.8172 34.5646 69.0708 31.4846 69.0708 27.3616C69.0708 23.2358 65.8172 20.216 61.6928 20.216C57.6258 20.216 54.3736 23.2372 54.3736 27.3616C54.3736 31.486 57.6258 34.5646 61.6928 34.5646ZM28.9034 42.756C20.0736 42.756 13.3354 35.9002 13.3354 27.5352C13.3354 19.2276 20.131 12.3732 28.9034 12.3732C37.7906 12.3732 44.5302 19.2864 44.5302 27.5352C44.5302 35.9002 37.7332 42.7546 28.9034 42.7546V42.756ZM28.9034 35.028C33.144 35.028 36.2814 31.6596 36.2814 27.594C36.2814 23.527 33.144 20.1572 28.9034 20.1572C24.6614 20.1572 21.5842 23.527 21.5842 27.5926C21.5842 31.6596 24.6628 35.028 28.9034 35.028ZM0.799805 0H9.04861V42H0.799805V0ZM115.6 9.1C115.6 10.0283 115.231 10.9185 114.575 11.5749C113.918 12.2313 113.028 12.6 112.1 12.6C111.172 12.6 110.281 12.2313 109.625 11.5749C108.969 10.9185 108.6 10.0283 108.6 9.1C108.6 8.17174 108.969 7.2815 109.625 6.62513C110.281 5.96875 111.172 5.6 112.1 5.6C113.028 5.6 113.918 5.96875 114.575 6.62513C115.231 7.2815 115.6 8.17174 115.6 9.1Z" fill="#171A26"/>
</g>
<defs>
<clipPath id="clip0_195_247">
<rect width="114.8" height="56" fill="white" transform="translate(0.799805)"/>
</clipPath>
</defs>
</svg>
