<svg width="263" height="56" viewBox="0 0 263 56" fill="none" xmlns="http://www.w3.org/2000/svg">
<g clip-path="url(#clip0_195_252)">
<path fill-rule="evenodd" clip-rule="evenodd" d="M28.4174 6.3938L32.1092 0L42.5756 6.0438L38.8852 12.4362C38.237 13.5576 39.2072 14.9212 40.4784 14.6762L47.5512 13.3112L49.8402 25.179L42.7674 26.5426C31.3266 28.749 22.592 16.485 28.4174 6.3938Z" fill="#3A724F"/>
<path fill-rule="evenodd" clip-rule="evenodd" d="M22.0224 49.6062L18.3306 56L7.86281 49.9576L11.5546 43.5638C12.2028 42.4424 11.2326 41.0788 9.96001 41.3238L2.88861 42.6874L0.599609 30.821L7.67241 29.4574C19.1132 27.251 27.8464 39.515 22.0224 49.6062Z" fill="#DC8E43"/>
<path fill-rule="evenodd" clip-rule="evenodd" d="M22.3419 6.3938L18.6515 0L8.18367 6.0438L11.8755 12.4362C12.5223 13.5576 11.5535 14.9212 10.2809 14.6762L3.20808 13.3112L0.921875 25.179L7.99328 26.5426C19.4355 28.749 28.1701 16.485 22.3433 6.3938H22.3419Z" fill="#14424C"/>
<path fill-rule="evenodd" clip-rule="evenodd" d="M28.1101 49.6062L31.7991 56L42.2669 49.9576L38.5751 43.5638C37.9283 42.4424 38.8971 41.0788 40.1697 41.3238L47.2411 42.6874L49.5301 30.821L42.4573 29.4574C31.0165 27.251 22.2833 39.515 28.1073 49.6062H28.1101Z" fill="#C85D1B"/>
<path d="M228.959 42.2142V30.3142C228.959 28.665 229.339 27.1852 230.097 25.8762C230.883 24.5406 231.996 23.4934 233.436 22.7332C234.877 21.9744 236.592 21.595 238.581 21.595C239.51 21.5859 240.435 21.7047 241.331 21.9478C242.17 22.1578 242.928 22.4588 243.609 22.8508C244.316 23.2176 244.918 23.6628 245.416 24.1864H245.495C246.028 23.6553 246.637 23.2053 247.301 22.8508C248.03 22.4493 248.81 22.1457 249.619 21.9478C250.529 21.7064 251.467 21.5878 252.408 21.595C254.397 21.595 256.112 21.973 257.553 22.7332C258.992 23.4934 260.105 24.5392 260.89 25.8762C261.677 27.1852 262.069 28.6636 262.069 30.3142V42.2142H255.941V30.5102C255.941 29.8564 255.772 29.267 255.432 28.7434C255.12 28.1958 254.673 27.7362 254.135 27.4078C253.568 27.0625 252.914 26.8853 252.25 26.8968C251.543 26.8968 250.901 27.0676 250.326 27.4078C249.788 27.7358 249.341 28.1954 249.03 28.7434C248.712 29.2774 248.549 29.889 248.558 30.5102V42.2142H242.471V30.5102C242.471 29.8564 242.3 29.267 241.96 28.7434C241.64 28.1878 241.18 27.7269 240.624 27.4078C240.056 27.0625 239.402 26.8853 238.738 26.8968C238.031 26.8968 237.39 27.0676 236.815 27.4078C236.276 27.7358 235.83 28.1954 235.518 28.7434C235.201 29.2777 235.038 29.8891 235.046 30.5102V42.2142H228.959ZM215.644 42.686C213.576 42.686 211.781 42.294 210.264 41.5072C208.771 40.6952 207.619 39.6088 206.807 38.248C205.995 36.8606 205.589 35.3276 205.589 33.6518V22.0654H211.678V33.495C211.678 34.202 211.847 34.8572 212.187 35.4592C212.527 36.0346 212.987 36.5064 213.562 36.8732C214.164 37.2134 214.846 37.3842 215.605 37.3842C216.338 37.3842 216.992 37.2134 217.569 36.8732C218.171 36.5064 218.643 36.0346 218.983 35.4592C219.323 34.8572 219.494 34.202 219.494 33.495V22.0654H225.581V33.6518C225.581 35.3276 225.188 36.8606 224.402 38.248C223.617 39.6088 222.479 40.6966 220.986 41.5072C219.519 42.2926 217.738 42.686 215.644 42.686ZM185.979 42.2142V37.3842H195.681C195.943 37.3842 196.178 37.331 196.388 37.226C196.597 37.0958 196.768 36.925 196.898 36.7164C197.026 36.5101 197.094 36.272 197.094 36.029C197.094 35.7861 197.026 35.5479 196.898 35.3416C196.775 35.1397 196.599 34.9762 196.388 34.8698C196.176 34.7383 195.931 34.6703 195.681 34.6738H192.146C190.836 34.6738 189.644 34.4638 188.572 34.0452C187.553 33.6232 186.679 32.9134 186.058 32.0026C185.456 31.0604 185.155 29.8424 185.155 28.35C185.155 27.1978 185.429 26.1506 185.979 25.2084C186.552 24.2691 187.348 23.4861 188.296 22.9292C189.286 22.3547 190.412 22.0564 191.557 22.0654H201.257V26.936H192.499C192.151 26.929 191.814 27.0558 191.557 27.2902C191.442 27.4024 191.351 27.537 191.29 27.6855C191.229 27.834 191.2 27.9935 191.203 28.154C191.203 28.5208 191.322 28.8344 191.557 29.0962C191.814 29.3306 192.151 29.4574 192.499 29.4504H195.956C197.421 29.4504 198.679 29.673 199.726 30.1168C200.8 30.5368 201.624 31.2172 202.201 32.1608C202.803 33.103 203.104 34.3196 203.104 35.812C203.104 36.9908 202.803 38.0646 202.201 39.032C201.63 39.9963 200.817 40.7953 199.843 41.3504C198.875 41.9272 197.776 42.2142 196.545 42.2142H185.979ZM172.716 21.595C174.418 21.595 175.923 21.8694 177.232 22.4196C178.518 22.9098 179.674 23.6892 180.61 24.6974C181.565 25.6853 182.301 26.863 182.77 28.154C183.267 29.463 183.517 30.9162 183.517 32.5136C183.517 34.503 183.098 36.2712 182.259 37.8154C181.485 39.2953 180.316 40.5323 178.883 41.3896C177.442 42.2534 175.766 42.686 173.855 42.686C173.043 42.686 172.27 42.581 171.537 42.3724C170.842 42.1681 170.181 41.8634 169.574 41.468C169.002 41.08 168.509 40.5868 168.121 40.0148H168.002V50.7388H161.915V32.5122C161.915 30.2862 162.36 28.3612 163.25 26.7386C164.113 25.1415 165.424 23.8307 167.02 22.967C168.644 22.0514 170.543 21.5936 172.716 21.5936V21.595ZM172.716 26.8576C171.773 26.8576 170.949 27.0928 170.242 27.5646C169.56 28.0098 169.036 28.6384 168.67 29.4504C168.304 30.2344 168.121 31.1262 168.121 32.1202C168.121 33.1156 168.304 34.006 168.67 34.7914C169.036 35.5768 169.56 36.2054 170.242 36.6772C170.949 37.1224 171.773 37.345 172.716 37.345C173.658 37.345 174.47 37.121 175.15 36.6772C175.835 36.2021 176.378 35.5504 176.722 34.7914C177.114 34.006 177.31 33.1156 177.31 32.1202C177.31 31.1262 177.114 30.2358 176.722 29.4504C176.356 28.6384 175.832 28.0084 175.15 27.5646C174.47 27.0928 173.658 26.8576 172.716 26.8576ZM152.663 42.2142V22.0654H158.791V42.2142H152.663ZM155.727 19.7876C154.758 19.7876 153.921 19.4348 153.214 18.7278C152.507 18.0208 152.152 17.1822 152.152 16.2134C152.152 15.2446 152.507 14.4074 153.214 13.7004C153.921 12.9668 154.758 12.6 155.727 12.6C156.695 12.6 157.534 12.9668 158.241 13.7004C158.948 14.4074 159.301 15.2446 159.301 16.2134C159.301 17.1822 158.948 18.0194 158.241 18.7278C157.534 19.4348 156.695 19.7876 155.727 19.7876ZM139.347 42.686C137.279 42.686 135.42 42.2282 133.769 41.3112C132.15 40.4236 130.795 39.1227 129.842 37.541C128.9 35.9436 128.428 34.1502 128.428 32.1594C128.428 30.1434 128.9 28.35 129.842 26.7792C130.795 25.1975 132.15 23.8966 133.769 23.009C135.42 22.0654 137.279 21.595 139.347 21.595C141.416 21.595 143.261 22.0654 144.885 23.009C146.498 23.8904 147.842 25.1936 148.773 26.7792C149.742 28.35 150.226 30.1434 150.226 32.1594C150.226 34.1502 149.742 35.9436 148.773 37.541C147.842 39.1267 146.498 40.4298 144.885 41.3112C143.236 42.2282 141.389 42.686 139.347 42.686ZM139.347 37.3842C140.315 37.3842 141.154 37.1476 141.861 36.6772C142.568 36.2059 143.137 35.5551 143.51 34.7914C143.904 34.006 144.1 33.1156 144.1 32.1202C144.1 31.1514 143.904 30.275 143.51 29.4882C143.137 28.725 142.568 28.0747 141.861 27.6038C141.154 27.132 140.315 26.8968 139.347 26.8968C138.378 26.8968 137.527 27.132 136.794 27.6038C136.087 28.0751 135.517 28.7259 135.144 29.4896C134.744 30.3086 134.542 31.2103 134.556 32.1216C134.556 33.1156 134.752 34.006 135.144 34.7914C135.517 35.555 136.087 36.2058 136.794 36.6772C137.527 37.1476 138.378 37.3842 139.347 37.3842ZM108.643 50.1886V44.9638H118.697C119.09 44.9638 119.418 44.8336 119.679 44.5718C119.807 44.459 119.908 44.3195 119.976 44.1632C120.044 44.0069 120.076 43.8377 120.071 43.6674V39.2294H119.954C119.456 39.8078 118.889 40.3222 118.265 40.761C117.689 41.181 117.033 41.4946 116.301 41.7046C115.522 41.9236 114.715 42.0292 113.906 42.0182C112.125 42.0182 110.528 41.5982 109.114 40.761C107.726 39.8972 106.626 38.7058 105.814 37.1868C105.03 35.6692 104.636 33.9402 104.636 32.0026C104.636 30.0916 105.042 28.35 105.854 26.7792C106.692 25.2084 107.91 23.9512 109.507 23.009C111.103 22.0654 113.055 21.595 115.359 21.595C117.558 21.595 119.457 22.0528 121.054 22.9698C122.658 23.8405 123.97 25.1651 124.824 26.7778C125.715 28.4018 126.16 30.3142 126.16 32.5136V44.296C126.16 46.102 125.624 47.53 124.55 48.5772C123.503 49.651 122.05 50.1872 120.19 50.1872L108.643 50.1886ZM115.398 36.9124C116.34 36.9124 117.152 36.7024 117.834 36.2838C118.507 35.847 119.049 35.2366 119.404 34.517C119.776 33.7596 119.964 32.925 119.954 32.081C119.954 31.1388 119.772 30.275 119.405 29.4896C119.038 28.7042 118.515 28.0882 117.833 27.643C117.152 27.1712 116.34 26.936 115.397 26.936C114.481 26.936 113.669 27.1586 112.962 27.6038C112.282 28.049 111.758 28.651 111.391 29.4098C111.026 30.17 110.843 31.0198 110.843 31.9634C110.843 32.8804 111.025 33.7176 111.391 34.4778C111.758 35.21 112.282 35.7994 112.964 36.2446C113.669 36.6898 114.481 36.9124 115.398 36.9124ZM92.2618 42.686C90.194 42.686 88.3348 42.2282 86.6856 41.3112C85.0658 40.4239 83.7103 39.123 82.7572 37.541C81.815 35.9436 81.3432 34.1502 81.3432 32.1594C81.3432 30.1434 81.815 28.35 82.7572 26.7792C83.7103 25.1972 85.0658 23.8963 86.6856 23.009C88.3348 22.0654 90.194 21.595 92.2618 21.595C94.331 21.595 96.1762 22.0654 97.8002 23.009C99.4136 23.8905 100.757 25.1936 101.688 26.7792C102.657 28.35 103.141 30.1434 103.141 32.1594C103.141 34.1502 102.657 35.9436 101.688 37.541C100.757 39.1266 99.4136 40.4297 97.8002 41.3112C96.151 42.2282 94.3044 42.686 92.2618 42.686ZM92.2618 37.3842C93.2306 37.3842 94.0678 37.1476 94.7762 36.6772C95.4831 36.2056 96.0522 35.5549 96.4254 34.7914C96.8174 34.006 97.0134 33.1156 97.0134 32.1202C97.0134 31.1514 96.8174 30.275 96.4254 29.4882C96.052 28.7252 95.4829 28.075 94.7762 27.6038C94.0692 27.132 93.2306 26.8968 92.2618 26.8968C91.293 26.8968 90.4418 27.132 89.7096 27.6038C89.0021 28.0751 88.4325 28.7259 88.059 29.4896C87.659 30.3086 87.4576 31.2103 87.471 32.1216C87.471 33.1156 87.667 34.006 88.059 34.7914C88.4326 35.555 89.0022 36.2058 89.7096 36.6772C90.4418 37.1476 91.293 37.3842 92.2618 37.3842ZM72.7654 42.2142C71.063 42.2142 69.5706 41.8362 68.2882 41.076C67.0409 40.3528 66.0103 39.3086 65.3034 38.052C64.5964 36.7948 64.2422 35.406 64.2422 33.8884V14.721H70.8404V34.3588C70.8404 34.9888 71.0644 35.5376 71.5082 36.0094C71.9534 36.4798 72.5022 36.7164 73.1574 36.7164H80.4234V42.2142H72.7654Z" fill="#14424C"/>
</g>
<defs>
<clipPath id="clip0_195_252">
<rect width="261.8" height="56" fill="white" transform="translate(0.599609)"/>
</clipPath>
</defs>
</svg>
