<svg width="283" height="56" viewBox="0 0 283 56" fill="none" xmlns="http://www.w3.org/2000/svg">
<g clip-path="url(#clip0_195_263)">
<path fill-rule="evenodd" clip-rule="evenodd" d="M35.778 16.3594C33.4757 14.8211 30.7689 14 28 14V0C33.5378 0 38.9514 1.64217 43.556 4.71885C48.1606 7.79552 51.7493 12.1685 53.8686 17.2848C55.9878 22.4011 56.5424 28.0311 55.462 33.4625C54.3816 38.894 51.7149 43.8831 47.7989 47.7989C43.8831 51.7149 38.894 54.3816 33.4625 55.462C28.0311 56.5424 22.4011 55.9878 17.2848 53.8686C12.1685 51.7493 7.79552 48.1606 4.71885 43.556C1.64217 38.9514 0 33.5378 0 28H14C14 30.7689 14.8211 33.4757 16.3594 35.778C17.8977 38.0803 20.0843 39.8747 22.6425 40.9343C25.2006 41.994 28.0155 42.2712 30.7313 41.7309C33.447 41.1908 35.9415 39.8574 37.8995 37.8995C39.8574 35.9415 41.1908 33.447 41.7309 30.7313C42.2712 28.0155 41.994 25.2006 40.9343 22.6425C39.8747 20.0843 38.0803 17.8977 35.778 16.3594Z" fill="#007DFC"/>
<path fill-rule="evenodd" clip-rule="evenodd" d="M14 7.3989e-06C14 1.83851 13.6379 3.65902 12.9343 5.35758C12.2307 7.05613 11.1995 8.59948 9.89949 9.8995C8.59948 11.1995 7.05613 12.2308 5.35757 12.9343C3.659 13.6379 1.8385 14 6.11954e-07 14L0 28C3.67701 28 7.31802 27.2758 10.7151 25.8686C14.1123 24.4615 17.199 22.399 19.7989 19.7989C22.399 17.199 24.4615 14.1123 25.8686 10.7151C27.2758 7.31801 28 3.67701 28 0L14 7.3989e-06Z" fill="#007DFC"/>
<path d="M175.867 20.2335H169.074V41.8107H175.867V20.2335Z" fill="#007DFC"/>
<path d="M169.83 16.1932C170.539 16.9036 171.427 17.2588 172.492 17.2588C173.558 17.2588 174.431 16.9036 175.112 16.1932C175.794 15.4533 176.134 14.5653 176.134 13.5294C176.134 12.4639 175.794 11.5759 175.112 10.8656C174.431 10.1552 173.558 9.8 172.492 9.8C171.427 9.8 170.539 10.1552 169.83 10.8656C169.148 11.5759 168.808 12.4639 168.808 13.5294C168.808 14.5653 169.148 15.4533 169.83 16.1932Z" fill="#007DFC"/>
<path d="M71.6191 41.8107V10.466H78.5896V35.6839H92.4861V41.8107H71.6191Z" fill="#007DFC"/>
<path fill-rule="evenodd" clip-rule="evenodd" d="M105.038 42.299C102.818 42.299 100.806 41.8107 99.0002 40.8339C97.2243 39.8276 95.8184 38.4661 94.7824 36.7493C93.7465 35.0326 93.2285 33.1087 93.2285 30.9777C93.2285 28.8466 93.7465 26.9375 94.7824 25.2504C95.8184 23.5633 97.2243 22.2313 99.0002 21.2547C100.776 20.2482 102.789 19.745 105.038 19.745C107.288 19.745 109.3 20.2335 111.076 21.2101C112.852 22.1869 114.258 23.5337 115.294 25.2504C116.33 26.9375 116.848 28.8466 116.848 30.9777C116.848 33.1087 116.33 35.0326 115.294 36.7493C114.258 38.4661 112.852 39.8276 111.076 40.8339C109.3 41.8107 107.288 42.299 105.038 42.299ZM105.038 36.1278C106.015 36.1278 106.873 35.9206 107.613 35.5062C108.353 35.0623 108.916 34.4555 109.3 33.686C109.715 32.8868 109.922 31.984 109.922 30.9777C109.922 29.9713 109.715 29.0982 109.3 28.3583C108.886 27.5887 108.309 26.9968 107.569 26.5824C106.858 26.1383 106.015 25.9164 105.038 25.9164C104.091 25.9164 103.248 26.1383 102.508 26.5824C101.768 26.9968 101.19 27.5887 100.776 28.3583C100.362 29.1278 100.155 30.0157 100.155 31.022C100.155 31.9988 100.362 32.8868 100.776 33.686C101.19 34.4555 101.768 35.0623 102.508 35.5062C103.248 35.9206 104.091 36.1278 105.038 36.1278Z" fill="#007DFC"/>
<path fill-rule="evenodd" clip-rule="evenodd" d="M122.228 50.2463C124.034 51.0749 126.121 51.4893 128.489 51.4893C130.797 51.4893 132.854 51.0306 134.66 50.113C136.465 49.1954 137.886 47.9228 138.922 46.2949C139.958 44.667 140.476 42.7431 140.476 40.5231V20.2335H133.816V21.6832C133.321 21.2663 132.758 20.9163 132.129 20.6331C130.975 20.0707 129.658 19.7894 128.178 19.7894C126.195 19.7894 124.433 20.263 122.894 21.2101C121.355 22.1277 120.142 23.4004 119.254 25.0284C118.366 26.6267 117.922 28.4322 117.922 30.445C117.922 32.4281 118.366 34.2335 119.254 35.8614C120.142 37.4893 121.355 38.7769 122.894 39.724C124.433 40.6711 126.195 41.1447 128.178 41.1447C129.628 41.1447 130.945 40.8636 132.129 40.3012C132.703 40.0288 133.221 39.7078 133.683 39.338V40.7008C133.683 42.2103 133.195 43.3794 132.218 44.2082C131.271 45.037 129.954 45.4513 128.266 45.4513C126.905 45.4513 125.736 45.2145 124.759 44.7409C123.812 44.2674 122.953 43.5718 122.184 42.6542L118.011 46.8276C119.046 48.3076 120.453 49.4472 122.228 50.2463ZM131.907 34.4851C131.226 34.8995 130.412 35.1067 129.465 35.1067C128.518 35.1067 127.689 34.8995 126.979 34.4851C126.298 34.0707 125.765 33.5083 125.381 32.7979C124.996 32.058 124.803 31.2736 124.803 30.445C124.803 29.5569 124.996 28.7578 125.381 28.0475C125.765 27.3371 126.313 26.7747 127.023 26.3603C127.734 25.9459 128.548 25.7387 129.465 25.7387C130.412 25.7387 131.226 25.9459 131.907 26.3603C132.617 26.7747 133.15 27.3371 133.505 28.0475C133.89 28.7578 134.083 29.5569 134.083 30.445C134.083 31.3328 133.89 32.132 133.505 32.8423C133.15 33.5231 132.617 34.0707 131.907 34.4851Z" fill="#007DFC"/>
<path fill-rule="evenodd" clip-rule="evenodd" d="M154.771 42.299C152.551 42.299 150.538 41.8107 148.733 40.8339C146.957 39.8276 145.551 38.4661 144.515 36.7493C143.479 35.0326 142.961 33.1087 142.961 30.9777C142.961 28.8466 143.479 26.9375 144.515 25.2504C145.551 23.5633 146.957 22.2313 148.733 21.2547C150.508 20.2482 152.522 19.745 154.771 19.745C157.02 19.745 159.033 20.2335 160.808 21.2101C162.585 22.1869 163.99 23.5337 165.026 25.2504C166.062 26.9375 166.58 28.8466 166.58 30.9777C166.58 33.1087 166.062 35.0326 165.026 36.7493C163.99 38.4661 162.585 39.8276 160.808 40.8339C159.033 41.8107 157.02 42.299 154.771 42.299ZM154.771 36.1278C155.747 36.1278 156.605 35.9206 157.346 35.5062C158.085 35.0623 158.648 34.4555 159.033 33.686C159.447 32.8868 159.655 31.984 159.655 30.9777C159.655 29.9713 159.447 29.0982 159.033 28.3583C158.619 27.5887 158.042 26.9968 157.301 26.5824C156.591 26.1383 155.747 25.9164 154.771 25.9164C153.824 25.9164 152.979 26.1383 152.24 26.5824C151.5 26.9968 150.923 27.5887 150.508 28.3583C150.094 29.1278 149.887 30.0157 149.887 31.022C149.887 31.9988 150.094 32.8868 150.508 33.686C150.923 34.4555 151.5 35.0623 152.24 35.5062C152.979 35.9206 153.824 36.1278 154.771 36.1278Z" fill="#007DFC"/>
<path fill-rule="evenodd" clip-rule="evenodd" d="M192.193 42.2547C190.744 42.2547 189.412 41.9735 188.198 41.4112C187.559 41.1152 186.982 40.7618 186.467 40.3511V50.9123H179.763V20.2335H186.556V21.7227C187.048 21.3196 187.596 20.9712 188.198 20.6774C189.412 20.0854 190.744 19.7894 192.193 19.7894C194.236 19.7894 196.042 20.2779 197.61 21.2547C199.209 22.2313 200.452 23.5633 201.339 25.2504C202.258 26.9375 202.716 28.8614 202.716 31.022C202.716 33.1828 202.258 35.1067 201.339 36.7938C200.452 38.481 199.209 39.8128 197.61 40.7896C196.042 41.7663 194.236 42.2547 192.193 42.2547ZM190.952 36.1278C191.927 36.1278 192.772 35.9058 193.481 35.4619C194.222 35.0179 194.799 34.411 195.213 33.6416C195.628 32.872 195.835 31.9988 195.835 31.022C195.835 30.0157 195.628 29.1278 195.213 28.3583C194.799 27.5887 194.222 26.9968 193.481 26.5824C192.772 26.1383 191.943 25.9164 190.995 25.9164C190.049 25.9164 189.204 26.1383 188.465 26.5824C187.754 26.9968 187.192 27.5887 186.778 28.3583C186.364 29.1278 186.156 30.0157 186.156 31.022C186.156 31.9988 186.348 32.872 186.733 33.6416C187.148 34.411 187.725 35.0179 188.465 35.4619C189.204 35.9058 190.033 36.1278 190.952 36.1278Z" fill="#007DFC"/>
<path d="M209.364 41.8551C210.607 42.1807 211.865 42.3434 213.137 42.3434C215.831 42.3434 217.962 41.722 219.531 40.4788C221.128 39.2357 221.928 37.5634 221.928 35.4619C221.928 34.1004 221.677 33.0051 221.173 32.1765C220.671 31.3181 220.02 30.6373 219.22 30.1342C218.421 29.631 217.577 29.2313 216.689 28.9353C215.801 28.6394 214.957 28.3878 214.159 28.1806C213.36 27.9734 212.709 27.7367 212.205 27.4702C211.702 27.2038 211.45 26.8486 211.45 26.4047C211.45 25.9903 211.643 25.6795 212.027 25.4723C212.412 25.2356 212.989 25.1173 213.759 25.1173C214.558 25.1173 215.372 25.2799 216.2 25.6056C217.059 25.9311 217.829 26.4936 218.509 27.2927L222.372 23.3857C221.396 22.1425 220.123 21.2101 218.554 20.5887C217.015 19.9375 215.328 19.6119 213.493 19.6119C211.747 19.6119 210.222 19.9079 208.92 20.4998C207.617 21.0918 206.61 21.9058 205.901 22.9417C205.191 23.948 204.835 25.1468 204.835 26.538C204.835 27.8403 205.087 28.9206 205.59 29.779C206.092 30.6076 206.745 31.2589 207.543 31.7324C208.342 32.206 209.186 32.576 210.074 32.8423C210.962 33.1087 211.806 33.3603 212.605 33.5972C213.403 33.8044 214.056 34.056 214.558 34.3519C215.092 34.6184 215.358 35.0179 215.358 35.5506C215.358 35.965 215.135 36.2905 214.691 36.5274C214.277 36.7641 213.671 36.8826 212.871 36.8826C211.716 36.8826 210.651 36.6754 209.675 36.261C208.698 35.817 207.854 35.2103 207.144 34.4407L203.281 38.3477C204.022 39.1468 204.909 39.8573 205.945 40.4788C207.011 41.0707 208.15 41.5295 209.364 41.8551Z" fill="#007DFC"/>
<path d="M234.315 42.299C232.333 42.299 230.572 41.8995 229.033 41.1004C227.523 40.2716 226.34 39.1468 225.481 37.7261C224.622 36.2758 224.193 34.6184 224.193 32.7536V20.2335H230.986V32.6648C230.986 33.4047 231.104 34.0411 231.342 34.5738C231.608 35.1067 231.993 35.5211 232.495 35.817C232.999 36.113 233.606 36.261 234.315 36.261C235.322 36.261 236.121 35.9502 236.714 35.3286C237.306 34.6774 237.601 33.7896 237.601 32.6648V20.2335H244.394V32.7092C244.394 34.6035 243.966 36.2758 243.106 37.7261C242.248 39.1468 241.065 40.2716 239.554 41.1004C238.045 41.8995 236.299 42.299 234.315 42.299Z" fill="#007DFC"/>
<path d="M254.563 20.2335H247.771V41.8107H254.563V29.2018C254.563 28.4619 254.712 27.8403 255.007 27.3371C255.333 26.8339 255.763 26.4491 256.295 26.1828C256.828 25.8867 257.435 25.7387 258.115 25.7387C259.092 25.7387 259.906 26.0495 260.557 26.6711C261.239 27.263 261.579 28.1067 261.579 29.2018V41.8107H268.372V29.2018C268.372 28.4619 268.52 27.8403 268.815 27.3371C269.142 26.8339 269.57 26.4491 270.103 26.1828C270.635 25.8867 271.243 25.7387 271.923 25.7387C272.901 25.7387 273.714 26.0495 274.365 26.6711C275.045 27.263 275.385 28.1067 275.385 29.2018V41.8107H282.18V28.447C282.18 26.6416 281.795 25.1024 281.025 23.8297C280.284 22.5273 279.264 21.5358 277.962 20.8551C276.689 20.1446 275.223 19.7894 273.566 19.7894C271.879 19.7894 270.354 20.1594 268.993 20.8995C268.108 21.3709 267.336 21.9793 266.673 22.7247C266.056 21.945 265.306 21.307 264.419 20.8106C263.236 20.1299 261.889 19.7894 260.38 19.7894C258.781 19.7894 257.347 20.1299 256.074 20.8106C255.52 21.0938 255.017 21.433 254.563 21.8282V20.2335Z" fill="#007DFC"/>
</g>
<defs>
<clipPath id="clip0_195_263">
<rect width="282.8" height="56" fill="white"/>
</clipPath>
</defs>
</svg>
