<svg width="768" height="146" viewBox="0 0 768 146" fill="none" xmlns="http://www.w3.org/2000/svg">
<path d="M44.7 117.05C38.2 117.05 32.25 115.55 26.85 112.55C21.55 109.55 17.3 105.05 14.1 99.05C11 92.95 9.45 85.25 9.45 75.95C9.45 66.55 10.95 58.85 13.95 52.85C17.05 46.85 21.25 42.4 26.55 39.5C31.85 36.5 37.9 35 44.7 35C52.6 35 59.55 36.7 65.55 40.1C71.65 43.5 76.45 48.25 79.95 54.35C83.55 60.45 85.35 67.65 85.35 75.95C85.35 84.25 83.55 91.5 79.95 97.7C76.45 103.8 71.65 108.55 65.55 111.95C59.55 115.35 52.6 117.05 44.7 117.05ZM0.3 145.1V35.9H18.15V54.8L17.55 76.1L19.05 97.4V145.1H0.3ZM42.6 101C47.1 101 51.1 100 54.6 98C58.2 96 61.05 93.1 63.15 89.3C65.25 85.5 66.3 81.05 66.3 75.95C66.3 70.75 65.25 66.3 63.15 62.6C61.05 58.8 58.2 55.9 54.6 53.9C51.1 51.9 47.1 50.9 42.6 50.9C38.1 50.9 34.05 51.9 30.45 53.9C26.85 55.9 24 58.8 21.9 62.6C19.8 66.3 18.75 70.75 18.75 75.95C18.75 81.05 19.8 85.5 21.9 89.3C24 93.1 26.85 96 30.45 98C34.05 100 38.1 101 42.6 101ZM145.282 117.05C136.382 117.05 128.582 115.3 121.882 111.8C115.282 108.2 110.132 103.3 106.432 97.1C102.832 90.9 101.032 83.85 101.032 75.95C101.032 67.95 102.782 60.9 106.282 54.8C109.882 48.6 114.782 43.75 120.982 40.25C127.282 36.75 134.432 35 142.432 35C150.232 35 157.182 36.7 163.282 40.1C169.382 43.5 174.182 48.3 177.682 54.5C181.182 60.7 182.932 68 182.932 76.4C182.932 77.2 182.882 78.1 182.782 79.1C182.782 80.1 182.732 81.05 182.632 81.95H115.882V69.5H172.732L165.382 73.4C165.482 68.8 164.532 64.75 162.532 61.25C160.532 57.75 157.782 55 154.282 53C150.882 51 146.932 50 142.432 50C137.832 50 133.782 51 130.282 53C126.882 55 124.182 57.8 122.182 61.4C120.282 64.9 119.332 69.05 119.332 73.85V76.85C119.332 81.65 120.432 85.9 122.632 89.6C124.832 93.3 127.932 96.15 131.932 98.15C135.932 100.15 140.532 101.15 145.732 101.15C150.232 101.15 154.282 100.45 157.882 99.05C161.482 97.65 164.682 95.45 167.482 92.45L177.532 104C173.932 108.2 169.382 111.45 163.882 113.75C158.482 115.95 152.282 117.05 145.282 117.05ZM242.193 117.05C233.793 117.05 226.293 115.3 219.693 111.8C213.193 108.2 208.093 103.3 204.393 97.1C200.693 90.9 198.843 83.85 198.843 75.95C198.843 67.95 200.693 60.9 204.393 54.8C208.093 48.6 213.193 43.75 219.693 40.25C226.293 36.75 233.793 35 242.193 35C249.993 35 256.843 36.6 262.743 39.8C268.743 42.9 273.293 47.5 276.393 53.6L261.993 62C259.593 58.2 256.643 55.4 253.143 53.6C249.743 51.8 246.043 50.9 242.043 50.9C237.443 50.9 233.293 51.9 229.593 53.9C225.893 55.9 222.993 58.8 220.893 62.6C218.793 66.3 217.743 70.75 217.743 75.95C217.743 81.15 218.793 85.65 220.893 89.45C222.993 93.15 225.893 96 229.593 98C233.293 100 237.443 101 242.043 101C246.043 101 249.743 100.1 253.143 98.3C256.643 96.5 259.593 93.7 261.993 89.9L276.393 98.3C273.293 104.3 268.743 108.95 262.743 112.25C256.843 115.45 249.993 117.05 242.193 117.05ZM346.451 116V99.8L345.401 96.35V68C345.401 62.5 343.751 58.25 340.451 55.25C337.151 52.15 332.151 50.6 325.451 50.6C320.951 50.6 316.501 51.3 312.101 52.7C307.801 54.1 304.151 56.05 301.151 58.55L293.801 44.9C298.101 41.6 303.201 39.15 309.101 37.55C315.101 35.85 321.301 35 327.701 35C339.301 35 348.251 37.8 354.551 43.4C360.951 48.9 364.151 57.45 364.151 69.05V116H346.451ZM321.251 117.05C315.251 117.05 310.001 116.05 305.501 114.05C301.001 111.95 297.501 109.1 295.001 105.5C292.601 101.8 291.401 97.65 291.401 93.05C291.401 88.55 292.451 84.5 294.551 80.9C296.751 77.3 300.301 74.45 305.201 72.35C310.101 70.25 316.601 69.2 324.701 69.2H347.951V81.65H326.051C319.651 81.65 315.351 82.7 313.151 84.8C310.951 86.8 309.851 89.3 309.851 92.3C309.851 95.7 311.201 98.4 313.901 100.4C316.601 102.4 320.351 103.4 325.151 103.4C329.751 103.4 333.851 102.35 337.451 100.25C341.151 98.15 343.801 95.05 345.401 90.95L348.551 102.2C346.751 106.9 343.501 110.55 338.801 113.15C334.201 115.75 328.351 117.05 321.251 117.05ZM426.761 117.05C419.061 117.05 412.111 115.35 405.911 111.95C399.811 108.45 395.011 103.65 391.511 97.55C388.011 91.45 386.261 84.25 386.261 75.95C386.261 67.65 388.011 60.45 391.511 54.35C395.011 48.25 399.811 43.5 405.911 40.1C412.111 36.7 419.061 35 426.761 35C433.461 35 439.461 36.5 444.761 39.5C450.061 42.4 454.261 46.85 457.361 52.85C460.461 58.85 462.011 66.55 462.011 75.95C462.011 85.25 460.511 92.95 457.511 99.05C454.511 105.05 450.361 109.55 445.061 112.55C439.761 115.55 433.661 117.05 426.761 117.05ZM429.011 101C433.511 101 437.511 100 441.011 98C444.611 96 447.461 93.1 449.561 89.3C451.761 85.5 452.861 81.05 452.861 75.95C452.861 70.75 451.761 66.3 449.561 62.6C447.461 58.8 444.611 55.9 441.011 53.9C437.511 51.9 433.511 50.9 429.011 50.9C424.511 50.9 420.461 51.9 416.861 53.9C413.361 55.9 410.511 58.8 408.311 62.6C406.211 66.3 405.161 70.75 405.161 75.95C405.161 81.05 406.211 85.5 408.311 89.3C410.511 93.1 413.361 96 416.861 98C420.461 100 424.511 101 429.011 101ZM453.311 116V97.1L454.061 75.8L452.561 54.5V4.69999H471.161V116H453.311ZM536.339 117.05C528.139 117.05 520.839 115.3 514.439 111.8C508.039 108.2 502.989 103.3 499.289 97.1C495.589 90.9 493.739 83.85 493.739 75.95C493.739 67.95 495.589 60.9 499.289 54.8C502.989 48.6 508.039 43.75 514.439 40.25C520.839 36.75 528.139 35 536.339 35C544.639 35 551.989 36.75 558.389 40.25C564.889 43.75 569.939 48.55 573.539 54.65C577.239 60.75 579.089 67.85 579.089 75.95C579.089 83.85 577.239 90.9 573.539 97.1C569.939 103.3 564.889 108.2 558.389 111.8C551.989 115.3 544.639 117.05 536.339 117.05ZM536.339 101C540.939 101 545.039 100 548.639 98C552.239 96 555.039 93.1 557.039 89.3C559.139 85.5 560.189 81.05 560.189 75.95C560.189 70.75 559.139 66.3 557.039 62.6C555.039 58.8 552.239 55.9 548.639 53.9C545.039 51.9 540.989 50.9 536.489 50.9C531.889 50.9 527.789 51.9 524.189 53.9C520.689 55.9 517.889 58.8 515.789 62.6C513.689 66.3 512.639 70.75 512.639 75.95C512.639 81.05 513.689 85.5 515.789 89.3C517.889 93.1 520.689 96 524.189 98C527.789 100 531.839 101 536.339 101ZM606.2 117.05C602.8 117.05 599.9 115.9 597.5 113.6C595.1 111.2 593.9 108.2 593.9 104.6C593.9 100.8 595.1 97.8 597.5 95.6C599.9 93.3 602.8 92.15 606.2 92.15C609.6 92.15 612.5 93.3 614.9 95.6C617.3 97.8 618.5 100.8 618.5 104.6C618.5 108.2 617.3 111.2 614.9 113.6C612.5 115.9 609.6 117.05 606.2 117.05ZM641.321 116V35.9H660.071V116H641.321ZM650.771 22.7C647.271 22.7 644.371 21.6 642.071 19.4C639.871 17.2 638.771 14.55 638.771 11.45C638.771 8.25 639.871 5.59999 642.071 3.49999C644.371 1.3 647.271 0.199998 650.771 0.199998C654.271 0.199998 657.121 1.25 659.321 3.34999C661.621 5.35 662.771 7.9 662.771 11C662.771 14.3 661.671 17.1 659.471 19.4C657.271 21.6 654.371 22.7 650.771 22.7ZM725.181 117.05C716.981 117.05 709.681 115.3 703.281 111.8C696.881 108.2 691.831 103.3 688.131 97.1C684.431 90.9 682.581 83.85 682.581 75.95C682.581 67.95 684.431 60.9 688.131 54.8C691.831 48.6 696.881 43.75 703.281 40.25C709.681 36.75 716.981 35 725.181 35C733.481 35 740.831 36.75 747.231 40.25C753.731 43.75 758.781 48.55 762.381 54.65C766.081 60.75 767.931 67.85 767.931 75.95C767.931 83.85 766.081 90.9 762.381 97.1C758.781 103.3 753.731 108.2 747.231 111.8C740.831 115.3 733.481 117.05 725.181 117.05ZM725.181 101C729.781 101 733.881 100 737.481 98C741.081 96 743.881 93.1 745.881 89.3C747.981 85.5 749.031 81.05 749.031 75.95C749.031 70.75 747.981 66.3 745.881 62.6C743.881 58.8 741.081 55.9 737.481 53.9C733.881 51.9 729.831 50.9 725.331 50.9C720.731 50.9 716.631 51.9 713.031 53.9C709.531 55.9 706.731 58.8 704.631 62.6C702.531 66.3 701.481 70.75 701.481 75.95C701.481 81.05 702.531 85.5 704.631 89.3C706.731 93.1 709.531 96 713.031 98C716.631 100 720.681 101 725.181 101Z" fill="#E8E8E8"/>
</svg>
